<svg width="327" height="463" viewBox="0 0 327 463" fill="none" xmlns="http://www.w3.org/2000/svg">
<path d="M265.2 462.3H32.9C31.2 462.3 29.8 460.9 29.8 459.2V458.6C29.8 456.9 31.2 455.5 32.9 455.5H265.1C266.8 455.5 268.2 456.9 268.2 458.6V459.2C268.3 460.9 266.9 462.3 265.2 462.3Z" fill="#99ADF9"/>
<path d="M21.3 108.8C20.8 108.8 20.4 108.4 20.4 107.9V103.2C20.4 102.7 20.8 102.3 21.3 102.3C21.8 102.3 22.2 102.7 22.2 103.2V107.9C22.1 108.4 21.7 108.8 21.3 108.8Z" fill="#C5DFFF"/>
<path d="M21.3 150.8C20.8 150.8 20.4 150.4 20.4 149.9V139.4C20.4 138.9 20.8 138.5 21.3 138.5C21.8 138.5 22.2 138.9 22.2 139.4V149.9C22.1 150.4 21.7 150.8 21.3 150.8ZM21.3 129.8C20.8 129.8 20.4 129.4 20.4 128.9V118.4C20.4 117.9 20.8 117.5 21.3 117.5C21.8 117.5 22.2 117.9 22.2 118.4V128.9C22.1 129.4 21.7 129.8 21.3 129.8Z" fill="#C5DFFF"/>
<path d="M33.0001 108.8C32.5001 108.8 32.1001 108.4 32.1001 107.9V103.2C32.1001 102.7 32.5001 102.3 33.0001 102.3C33.5001 102.3 33.9001 102.7 33.9001 103.2V107.9C33.9001 108.4 33.5001 108.8 33.0001 108.8Z" fill="#C5DFFF"/>
<path d="M33.0001 150.8C32.5001 150.8 32.1001 150.4 32.1001 149.9V139.4C32.1001 138.9 32.5001 138.5 33.0001 138.5C33.5001 138.5 33.9001 138.9 33.9001 139.4V149.9C33.9001 150.4 33.5001 150.8 33.0001 150.8ZM33.0001 129.8C32.5001 129.8 32.1001 129.4 32.1001 128.9V118.4C32.1001 117.9 32.5001 117.5 33.0001 117.5C33.5001 117.5 33.9001 117.9 33.9001 118.4V128.9C33.9001 129.4 33.5001 129.8 33.0001 129.8Z" fill="#C5DFFF"/>
<path d="M44.7 108.8C44.2 108.8 43.8 108.4 43.8 107.9V103.2C43.8 102.7 44.2 102.3 44.7 102.3C45.2 102.3 45.6001 102.7 45.6001 103.2V107.9C45.6001 108.4 45.2 108.8 44.7 108.8Z" fill="#C5DFFF"/>
<path d="M44.7 171.7C44.2 171.7 43.8 171.3 43.8 170.8V160.3C43.8 159.8 44.2 159.4 44.7 159.4C45.2 159.4 45.6001 159.8 45.6001 160.3V170.8C45.6001 171.4 45.2 171.7 44.7 171.7ZM44.7 150.8C44.2 150.8 43.8 150.4 43.8 149.9V139.4C43.8 138.9 44.2 138.5 44.7 138.5C45.2 138.5 45.6001 138.9 45.6001 139.4V149.9C45.6001 150.4 45.2 150.8 44.7 150.8ZM44.7 129.8C44.2 129.8 43.8 129.4 43.8 128.9V118.4C43.8 117.9 44.2 117.5 44.7 117.5C45.2 117.5 45.6001 117.9 45.6001 118.4V128.9C45.6001 129.4 45.2 129.8 44.7 129.8Z" fill="#C5DFFF"/>
<path d="M56.5001 108.8C56.0001 108.8 55.6001 108.4 55.6001 107.9V103.2C55.6001 102.7 56.0001 102.3 56.5001 102.3C57.0001 102.3 57.4001 102.7 57.4001 103.2V107.9C57.3001 108.4 56.9001 108.8 56.5001 108.8Z" fill="#C5DFFF"/>
<path d="M56.5001 171.7C56.0001 171.7 55.6001 171.3 55.6001 170.8V160.3C55.6001 159.8 56.0001 159.4 56.5001 159.4C57.0001 159.4 57.4001 159.8 57.4001 160.3V170.8C57.3001 171.4 56.9001 171.7 56.5001 171.7ZM56.5001 150.8C56.0001 150.8 55.6001 150.4 55.6001 149.9V139.4C55.6001 138.9 56.0001 138.5 56.5001 138.5C57.0001 138.5 57.4001 138.9 57.4001 139.4V149.9C57.3001 150.4 56.9001 150.8 56.5001 150.8ZM56.5001 129.8C56.0001 129.8 55.6001 129.4 55.6001 128.9V118.4C55.6001 117.9 56.0001 117.5 56.5001 117.5C57.0001 117.5 57.4001 117.9 57.4001 118.4V128.9C57.3001 129.4 56.9001 129.8 56.5001 129.8Z" fill="#C5DFFF"/>
<path d="M68.2 108.8C67.7 108.8 67.3 108.4 67.3 107.9V103.2C67.3 102.7 67.7 102.3 68.2 102.3C68.7 102.3 69.1001 102.7 69.1001 103.2V107.9C69.1001 108.4 68.7 108.8 68.2 108.8Z" fill="#C5DFFF"/>
<path d="M68.2 171.7C67.7 171.7 67.3 171.3 67.3 170.8V160.3C67.3 159.8 67.7 159.4 68.2 159.4C68.7 159.4 69.1001 159.8 69.1001 160.3V170.8C69.1001 171.4 68.7 171.7 68.2 171.7ZM68.2 150.8C67.7 150.8 67.3 150.4 67.3 149.9V139.4C67.3 138.9 67.7 138.5 68.2 138.5C68.7 138.5 69.1001 138.9 69.1001 139.4V149.9C69.1001 150.4 68.7 150.8 68.2 150.8ZM68.2 129.8C67.7 129.8 67.3 129.4 67.3 128.9V118.4C67.3 117.9 67.7 117.5 68.2 117.5C68.7 117.5 69.1001 117.9 69.1001 118.4V128.9C69.1001 129.4 68.7 129.8 68.2 129.8Z" fill="#C5DFFF"/>
<path d="M68.2 187C67.7 187 67.3 186.6 67.3 186.1V181.4C67.3 180.9 67.7 180.5 68.2 180.5C68.7 180.5 69.1001 180.9 69.1001 181.4V186.1C69.1001 186.6 68.7 187 68.2 187Z" fill="#C5DFFF"/>
<path d="M79.9 108.8C79.4 108.8 79 108.4 79 107.9V103.2C79 102.7 79.4 102.3 79.9 102.3C80.4 102.3 80.8 102.7 80.8 103.2V107.9C80.8 108.4 80.4 108.8 79.9 108.8Z" fill="#C5DFFF"/>
<path d="M79.9 171.7C79.4 171.7 79 171.3 79 170.8V160.3C79 159.8 79.4 159.4 79.9 159.4C80.4 159.4 80.8 159.8 80.8 160.3V170.8C80.8 171.4 80.4 171.7 79.9 171.7ZM79.9 150.8C79.4 150.8 79 150.4 79 149.9V139.4C79 138.9 79.4 138.5 79.9 138.5C80.4 138.5 80.8 138.9 80.8 139.4V149.9C80.8 150.4 80.4 150.8 79.9 150.8ZM79.9 129.8C79.4 129.8 79 129.4 79 128.9V118.4C79 117.9 79.4 117.5 79.9 117.5C80.4 117.5 80.8 117.9 80.8 118.4V128.9C80.8 129.4 80.4 129.8 79.9 129.8Z" fill="#C5DFFF"/>
<path d="M79.9 187C79.4 187 79 186.6 79 186.1V181.4C79 180.9 79.4 180.5 79.9 180.5C80.4 180.5 80.8 180.9 80.8 181.4V186.1C80.8 186.6 80.4 187 79.9 187Z" fill="#C5DFFF"/>
<path d="M109.2 81.2C108.7 81.2 108.3 80.8 108.3 80.3V75.6C108.3 75.1 108.7 74.7 109.2 74.7C109.7 74.7 110.1 75.1 110.1 75.6V80.3C110.1 80.8 109.7 81.2 109.2 81.2Z" fill="#C5DFFF"/>
<path d="M109.2 123.1C108.7 123.1 108.3 122.7 108.3 122.2V111.7C108.3 111.2 108.7 110.8 109.2 110.8C109.7 110.8 110.1 111.2 110.1 111.7V122.2C110.1 122.8 109.7 123.1 109.2 123.1ZM109.2 102.2C108.7 102.2 108.3 101.8 108.3 101.3V90.8C108.3 90.3 108.7 89.9 109.2 89.9C109.7 89.9 110.1 90.3 110.1 90.8V101.3C110.1 101.8 109.7 102.2 109.2 102.2Z" fill="#C5DFFF"/>
<path d="M120.9 81.2C120.4 81.2 120 80.8 120 80.3V75.6C120 75.1 120.4 74.7 120.9 74.7C121.4 74.7 121.8 75.1 121.8 75.6V80.3C121.8 80.8 121.4 81.2 120.9 81.2Z" fill="#C5DFFF"/>
<path d="M120.9 123.1C120.4 123.1 120 122.7 120 122.2V111.7C120 111.2 120.4 110.8 120.9 110.8C121.4 110.8 121.8 111.2 121.8 111.7V122.2C121.8 122.8 121.4 123.1 120.9 123.1ZM120.9 102.2C120.4 102.2 120 101.8 120 101.3V90.8C120 90.3 120.4 89.9 120.9 89.9C121.4 89.9 121.8 90.3 121.8 90.8V101.3C121.8 101.8 121.4 102.2 120.9 102.2Z" fill="#C5DFFF"/>
<path d="M132.7 81.2C132.2 81.2 131.8 80.8 131.8 80.3V75.6C131.8 75.1 132.2 74.7 132.7 74.7C133.2 74.7 133.6 75.1 133.6 75.6V80.3C133.5 80.8 133.1 81.2 132.7 81.2Z" fill="#C5DFFF"/>
<path d="M132.7 144.1C132.2 144.1 131.8 143.7 131.8 143.2V132.7C131.8 132.2 132.2 131.8 132.7 131.8C133.2 131.8 133.6 132.2 133.6 132.7V143.2C133.5 143.8 133.1 144.1 132.7 144.1ZM132.7 123.1C132.2 123.1 131.8 122.7 131.8 122.2V111.7C131.8 111.2 132.2 110.8 132.7 110.8C133.2 110.8 133.6 111.2 133.6 111.7V122.2C133.5 122.8 133.1 123.1 132.7 123.1ZM132.7 102.2C132.2 102.2 131.8 101.8 131.8 101.3V90.8C131.8 90.3 132.2 89.9 132.7 89.9C133.2 89.9 133.6 90.3 133.6 90.8V101.3C133.5 101.8 133.1 102.2 132.7 102.2Z" fill="#C5DFFF"/>
<path d="M167.8 81.2C167.3 81.2 166.9 80.8 166.9 80.3V75.6C166.9 75.1 167.3 74.7 167.8 74.7C168.3 74.7 168.7 75.1 168.7 75.6V80.3C168.7 80.8 168.3 81.2 167.8 81.2Z" fill="#C5DFFF"/>
<path d="M167.8 144.1C167.3 144.1 166.9 143.7 166.9 143.2V132.7C166.9 132.2 167.3 131.8 167.8 131.8C168.3 131.8 168.7 132.2 168.7 132.7V143.2C168.7 143.8 168.3 144.1 167.8 144.1ZM167.8 123.1C167.3 123.1 166.9 122.7 166.9 122.2V111.7C166.9 111.2 167.3 110.8 167.8 110.8C168.3 110.8 168.7 111.2 168.7 111.7V122.2C168.7 122.8 168.3 123.1 167.8 123.1ZM167.8 102.2C167.3 102.2 166.9 101.8 166.9 101.3V90.8C166.9 90.3 167.3 89.9 167.8 89.9C168.3 89.9 168.7 90.3 168.7 90.8V101.3C168.7 101.8 168.3 102.2 167.8 102.2Z" fill="#C5DFFF"/>
<path d="M179.3 81.2C178.8 81.2 178.4 80.8 178.4 80.3V75.6C178.4 75.1 178.8 74.7 179.3 74.7C179.8 74.7 180.2 75.1 180.2 75.6V80.3C180.1 80.8 179.7 81.2 179.3 81.2Z" fill="#C5DFFF"/>
<path d="M179.3 144.1C178.8 144.1 178.4 143.7 178.4 143.2V132.7C178.4 132.2 178.8 131.8 179.3 131.8C179.8 131.8 180.2 132.2 180.2 132.7V143.2C180.1 143.8 179.7 144.1 179.3 144.1ZM179.3 123.1C178.8 123.1 178.4 122.7 178.4 122.2V111.7C178.4 111.2 178.8 110.8 179.3 110.8C179.8 110.8 180.2 111.2 180.2 111.7V122.2C180.1 122.8 179.7 123.1 179.3 123.1ZM179.3 102.2C178.8 102.2 178.4 101.8 178.4 101.3V90.8C178.4 90.3 178.8 89.9 179.3 89.9C179.8 89.9 180.2 90.3 180.2 90.8V101.3C180.1 101.8 179.7 102.2 179.3 102.2Z" fill="#C5DFFF"/>
<path d="M191 81.2C190.5 81.2 190.1 80.8 190.1 80.3V75.6C190.1 75.1 190.5 74.7 191 74.7C191.5 74.7 191.9 75.1 191.9 75.6V80.3C191.9 80.8 191.5 81.2 191 81.2Z" fill="#C5DFFF"/>
<path d="M191 144.1C190.5 144.1 190.1 143.7 190.1 143.2V132.7C190.1 132.2 190.5 131.8 191 131.8C191.5 131.8 191.9 132.2 191.9 132.7V143.2C191.9 143.8 191.5 144.1 191 144.1ZM191 123.1C190.5 123.1 190.1 122.7 190.1 122.2V111.7C190.1 111.2 190.5 110.8 191 110.8C191.5 110.8 191.9 111.2 191.9 111.7V122.2C191.9 122.8 191.5 123.1 191 123.1ZM191 102.2C190.5 102.2 190.1 101.8 190.1 101.3V90.8C190.1 90.3 190.5 89.9 191 89.9C191.5 89.9 191.9 90.3 191.9 90.8V101.3C191.9 101.8 191.5 102.2 191 102.2Z" fill="#C5DFFF"/>
<path d="M202.7 81.2C202.2 81.2 201.8 80.8 201.8 80.3V75.6C201.8 75.1 202.2 74.7 202.7 74.7C203.2 74.7 203.6 75.1 203.6 75.6V80.3C203.6 80.8 203.2 81.2 202.7 81.2Z" fill="#C5DFFF"/>
<path d="M202.7 144.1C202.2 144.1 201.8 143.7 201.8 143.2V132.7C201.8 132.2 202.2 131.8 202.7 131.8C203.2 131.8 203.6 132.2 203.6 132.7V143.2C203.6 143.8 203.2 144.1 202.7 144.1ZM202.7 123.1C202.2 123.1 201.8 122.7 201.8 122.2V111.7C201.8 111.2 202.2 110.8 202.7 110.8C203.2 110.8 203.6 111.2 203.6 111.7V122.2C203.6 122.8 203.2 123.1 202.7 123.1ZM202.7 102.2C202.2 102.2 201.8 101.8 201.8 101.3V90.8C201.8 90.3 202.2 89.9 202.7 89.9C203.2 89.9 203.6 90.3 203.6 90.8V101.3C203.6 101.8 203.2 102.2 202.7 102.2Z" fill="#C5DFFF"/>
<path d="M156.1 162.9C155.6 162.9 155.2 162.5 155.2 162V151.5C155.2 151 155.6 150.6 156.1 150.6C156.6 150.6 157 151 157 151.5V162C157 162.5 156.6 162.9 156.1 162.9Z" fill="#C5DFFF"/>
<path d="M167.8 162.9C167.3 162.9 166.9 162.5 166.9 162V151.5C166.9 151 167.3 150.6 167.8 150.6C168.3 150.6 168.7 151 168.7 151.5V162C168.7 162.5 168.3 162.9 167.8 162.9Z" fill="#C5DFFF"/>
<path d="M179.3 162.9C178.8 162.9 178.4 162.5 178.4 162V151.5C178.4 151 178.8 150.6 179.3 150.6C179.8 150.6 180.2 151 180.2 151.5V162C180.1 162.5 179.7 162.9 179.3 162.9Z" fill="#C5DFFF"/>
<path d="M191 183.9C190.5 183.9 190.1 183.5 190.1 183V172.5C190.1 172 190.5 171.6 191 171.6C191.5 171.6 191.9 172 191.9 172.5V183C191.9 183.5 191.5 183.9 191 183.9ZM191 162.9C190.5 162.9 190.1 162.5 190.1 162V151.5C190.1 151 190.5 150.6 191 150.6C191.5 150.6 191.9 151 191.9 151.5V162C191.9 162.5 191.5 162.9 191 162.9Z" fill="#C5DFFF"/>
<path d="M202.7 204.9C202.2 204.9 201.8 204.5 201.8 204V193.5C201.8 193 202.2 192.6 202.7 192.6C203.2 192.6 203.6 193 203.6 193.5V204C203.6 204.5 203.2 204.9 202.7 204.9ZM202.7 183.9C202.2 183.9 201.8 183.5 201.8 183V172.5C201.8 172 202.2 171.6 202.7 171.6C203.2 171.6 203.6 172 203.6 172.5V183C203.6 183.5 203.2 183.9 202.7 183.9ZM202.7 162.9C202.2 162.9 201.8 162.5 201.8 162V151.5C201.8 151 202.2 150.6 202.7 150.6C203.2 150.6 203.6 151 203.6 151.5V162C203.6 162.5 203.2 162.9 202.7 162.9Z" fill="#C5DFFF"/>
<path d="M214.5 204.9C214 204.9 213.6 204.5 213.6 204V193.5C213.6 193 214 192.6 214.5 192.6C215 192.6 215.4 193 215.4 193.5V204C215.3 204.5 214.9 204.9 214.5 204.9ZM214.5 183.9C214 183.9 213.6 183.5 213.6 183V172.5C213.6 172 214 171.6 214.5 171.6C215 171.6 215.4 172 215.4 172.5V183C215.3 183.5 214.9 183.9 214.5 183.9ZM214.5 162.9C214 162.9 213.6 162.5 213.6 162V151.5C213.6 151 214 150.6 214.5 150.6C215 150.6 215.4 151 215.4 151.5V162C215.3 162.5 214.9 162.9 214.5 162.9Z" fill="#C5DFFF"/>
<path d="M226.2 204.9C225.7 204.9 225.3 204.5 225.3 204V193.5C225.3 193 225.7 192.6 226.2 192.6C226.7 192.6 227.1 193 227.1 193.5V204C227 204.5 226.7 204.9 226.2 204.9ZM226.2 183.9C225.7 183.9 225.3 183.5 225.3 183V172.5C225.3 172 225.7 171.6 226.2 171.6C226.7 171.6 227.1 172 227.1 172.5V183C227 183.5 226.7 183.9 226.2 183.9ZM226.2 162.9C225.7 162.9 225.3 162.5 225.3 162V151.5C225.3 151 225.7 150.6 226.2 150.6C226.7 150.6 227.1 151 227.1 151.5V162C227 162.5 226.7 162.9 226.2 162.9Z" fill="#C5DFFF"/>
<path d="M226.2 220.1C225.7 220.1 225.3 219.7 225.3 219.2V214.5C225.3 214 225.7 213.6 226.2 213.6C226.7 213.6 227.1 214 227.1 214.5V219.2C227 219.7 226.7 220.1 226.2 220.1Z" fill="#C5DFFF"/>
<path d="M237.9 204.9C237.4 204.9 237 204.5 237 204V193.5C237 193 237.4 192.6 237.9 192.6C238.4 192.6 238.8 193 238.8 193.5V204C238.8 204.5 238.4 204.9 237.9 204.9ZM237.9 183.9C237.4 183.9 237 183.5 237 183V172.5C237 172 237.4 171.6 237.9 171.6C238.4 171.6 238.8 172 238.8 172.5V183C238.8 183.5 238.4 183.9 237.9 183.9ZM237.9 162.9C237.4 162.9 237 162.5 237 162V151.5C237 151 237.4 150.6 237.9 150.6C238.4 150.6 238.8 151 238.8 151.5V162C238.8 162.5 238.4 162.9 237.9 162.9Z" fill="#C5DFFF"/>
<path d="M237.9 220.1C237.4 220.1 237 219.7 237 219.2V214.5C237 214 237.4 213.6 237.9 213.6C238.4 213.6 238.8 214 238.8 214.5V219.2C238.8 219.7 238.4 220.1 237.9 220.1Z" fill="#C5DFFF"/>
<path d="M214.5 81.2C214 81.2 213.6 80.8 213.6 80.3V75.6C213.6 75.1 214 74.7 214.5 74.7C215 74.7 215.4 75.1 215.4 75.6V80.3C215.3 80.8 214.9 81.2 214.5 81.2Z" fill="#C5DFFF"/>
<path d="M214.5 144.1C214 144.1 213.6 143.7 213.6 143.2V132.7C213.6 132.2 214 131.8 214.5 131.8C215 131.8 215.4 132.2 215.4 132.7V143.2C215.3 143.8 214.9 144.1 214.5 144.1ZM214.5 123.1C214 123.1 213.6 122.7 213.6 122.2V111.7C213.6 111.2 214 110.8 214.5 110.8C215 110.8 215.4 111.2 215.4 111.7V122.2C215.3 122.8 214.9 123.1 214.5 123.1ZM214.5 102.2C214 102.2 213.6 101.8 213.6 101.3V90.8C213.6 90.3 214 89.9 214.5 89.9C215 89.9 215.4 90.3 215.4 90.8V101.3C215.3 101.8 214.9 102.2 214.5 102.2Z" fill="#C5DFFF"/>
<path d="M226.2 81.2C225.7 81.2 225.3 80.8 225.3 80.3V75.6C225.3 75.1 225.7 74.7 226.2 74.7C226.7 74.7 227.1 75.1 227.1 75.6V80.3C227 80.8 226.7 81.2 226.2 81.2Z" fill="#C5DFFF"/>
<path d="M226.2 144.1C225.7 144.1 225.3 143.7 225.3 143.2V132.7C225.3 132.2 225.7 131.8 226.2 131.8C226.7 131.8 227.1 132.2 227.1 132.7V143.2C227 143.8 226.7 144.1 226.2 144.1ZM226.2 123.1C225.7 123.1 225.3 122.7 225.3 122.2V111.7C225.3 111.2 225.7 110.8 226.2 110.8C226.7 110.8 227.1 111.2 227.1 111.7V122.2C227 122.8 226.7 123.1 226.2 123.1ZM226.2 102.2C225.7 102.2 225.3 101.8 225.3 101.3V90.8C225.3 90.3 225.7 89.9 226.2 89.9C226.7 89.9 227.1 90.3 227.1 90.8V101.3C227 101.8 226.7 102.2 226.2 102.2Z" fill="#C5DFFF"/>
<path d="M237.9 81.2C237.4 81.2 237 80.8 237 80.3V75.6C237 75.1 237.4 74.7 237.9 74.7C238.4 74.7 238.8 75.1 238.8 75.6V80.3C238.8 80.8 238.4 81.2 237.9 81.2Z" fill="#C5DFFF"/>
<path d="M237.9 144.1C237.4 144.1 237 143.7 237 143.2V132.7C237 132.2 237.4 131.8 237.9 131.8C238.4 131.8 238.8 132.2 238.8 132.7V143.2C238.8 143.8 238.4 144.1 237.9 144.1ZM237.9 123.1C237.4 123.1 237 122.7 237 122.2V111.7C237 111.2 237.4 110.8 237.9 110.8C238.4 110.8 238.8 111.2 238.8 111.7V122.2C238.8 122.8 238.4 123.1 237.9 123.1ZM237.9 102.2C237.4 102.2 237 101.8 237 101.3V90.8C237 90.3 237.4 89.9 237.9 89.9C238.4 89.9 238.8 90.3 238.8 90.8V101.3C238.8 101.8 238.4 102.2 237.9 102.2Z" fill="#C5DFFF"/>
<path d="M144.4 81.2C143.9 81.2 143.5 80.8 143.5 80.3V75.6C143.5 75.1 143.9 74.7 144.4 74.7C144.9 74.7 145.3 75.1 145.3 75.6V80.3C145.2 80.8 144.9 81.2 144.4 81.2Z" fill="#C5DFFF"/>
<path d="M144.4 144.1C143.9 144.1 143.5 143.7 143.5 143.2V132.7C143.5 132.2 143.9 131.8 144.4 131.8C144.9 131.8 145.3 132.2 145.3 132.7V143.2C145.2 143.8 144.9 144.1 144.4 144.1ZM144.4 123.1C143.9 123.1 143.5 122.7 143.5 122.2V111.7C143.5 111.2 143.9 110.8 144.4 110.8C144.9 110.8 145.3 111.2 145.3 111.7V122.2C145.2 122.8 144.9 123.1 144.4 123.1ZM144.4 102.2C143.9 102.2 143.5 101.8 143.5 101.3V90.8C143.5 90.3 143.9 89.9 144.4 89.9C144.9 89.9 145.3 90.3 145.3 90.8V101.3C145.2 101.8 144.9 102.2 144.4 102.2Z" fill="#C5DFFF"/>
<path d="M156.1 81.2C155.6 81.2 155.2 80.8 155.2 80.3V75.6C155.2 75.1 155.6 74.7 156.1 74.7C156.6 74.7 157 75.1 157 75.6V80.3C157 80.8 156.6 81.2 156.1 81.2Z" fill="#C5DFFF"/>
<path d="M156.1 144.1C155.6 144.1 155.2 143.7 155.2 143.2V132.7C155.2 132.2 155.6 131.8 156.1 131.8C156.6 131.8 157 132.2 157 132.7V143.2C157 143.8 156.6 144.1 156.1 144.1ZM156.1 123.1C155.6 123.1 155.2 122.7 155.2 122.2V111.7C155.2 111.2 155.6 110.8 156.1 110.8C156.6 110.8 157 111.2 157 111.7V122.2C157 122.8 156.6 123.1 156.1 123.1ZM156.1 102.2C155.6 102.2 155.2 101.8 155.2 101.3V90.8C155.2 90.3 155.6 89.9 156.1 89.9C156.6 89.9 157 90.3 157 90.8V101.3C157 101.8 156.6 102.2 156.1 102.2Z" fill="#C5DFFF"/>
<path d="M263.6 162.6C263.1 162.6 262.7 162.2 262.7 161.7V157C262.7 156.5 263.1 156.1 263.6 156.1C264.1 156.1 264.5 156.5 264.5 157V161.7C264.4 162.2 264 162.6 263.6 162.6Z" fill="#C5DFFF"/>
<path d="M263.6 225.5C263.1 225.5 262.7 225.1 262.7 224.6V214.1C262.7 213.6 263.1 213.2 263.6 213.2C264.1 213.2 264.5 213.6 264.5 214.1V224.6C264.4 225.1 264 225.5 263.6 225.5ZM263.6 204.5C263.1 204.5 262.7 204.1 262.7 203.6V193.1C262.7 192.6 263.1 192.2 263.6 192.2C264.1 192.2 264.5 192.6 264.5 193.1V203.6C264.4 204.1 264 204.5 263.6 204.5ZM263.6 183.5C263.1 183.5 262.7 183.1 262.7 182.6V172.1C262.7 171.6 263.1 171.2 263.6 171.2C264.1 171.2 264.5 171.6 264.5 172.1V182.6C264.4 183.2 264 183.5 263.6 183.5Z" fill="#C5DFFF"/>
<path d="M263.6 240.7C263.1 240.7 262.7 240.3 262.7 239.8V235.1C262.7 234.6 263.1 234.2 263.6 234.2C264.1 234.2 264.5 234.6 264.5 235.1V239.8C264.4 240.4 264 240.7 263.6 240.7Z" fill="#C5DFFF"/>
<path d="M275.3 162.6C274.8 162.6 274.4 162.2 274.4 161.7V157C274.4 156.5 274.8 156.1 275.3 156.1C275.8 156.1 276.2 156.5 276.2 157V161.7C276.1 162.2 275.8 162.6 275.3 162.6Z" fill="#C5DFFF"/>
<path d="M275.3 225.5C274.8 225.5 274.4 225.1 274.4 224.6V214.1C274.4 213.6 274.8 213.2 275.3 213.2C275.8 213.2 276.2 213.6 276.2 214.1V224.6C276.1 225.1 275.8 225.5 275.3 225.5ZM275.3 204.5C274.8 204.5 274.4 204.1 274.4 203.6V193.1C274.4 192.6 274.8 192.2 275.3 192.2C275.8 192.2 276.2 192.6 276.2 193.1V203.6C276.1 204.1 275.8 204.5 275.3 204.5ZM275.3 183.5C274.8 183.5 274.4 183.1 274.4 182.6V172.1C274.4 171.6 274.8 171.2 275.3 171.2C275.8 171.2 276.2 171.6 276.2 172.1V182.6C276.1 183.2 275.8 183.5 275.3 183.5Z" fill="#C5DFFF"/>
<path d="M275.3 240.7C274.8 240.7 274.4 240.3 274.4 239.8V235.1C274.4 234.6 274.8 234.2 275.3 234.2C275.8 234.2 276.2 234.6 276.2 235.1V239.8C276.1 240.4 275.8 240.7 275.3 240.7Z" fill="#C5DFFF"/>
<path d="M287 162.6C286.5 162.6 286.1 162.2 286.1 161.7V157C286.1 156.5 286.5 156.1 287 156.1C287.5 156.1 287.9 156.5 287.9 157V161.7C287.9 162.2 287.5 162.6 287 162.6Z" fill="#C5DFFF"/>
<path d="M287 225.5C286.5 225.5 286.1 225.1 286.1 224.6V214.1C286.1 213.6 286.5 213.2 287 213.2C287.5 213.2 287.9 213.6 287.9 214.1V224.6C287.9 225.1 287.5 225.5 287 225.5ZM287 204.5C286.5 204.5 286.1 204.1 286.1 203.6V193.1C286.1 192.6 286.5 192.2 287 192.2C287.5 192.2 287.9 192.6 287.9 193.1V203.6C287.9 204.1 287.5 204.5 287 204.5ZM287 183.5C286.5 183.5 286.1 183.1 286.1 182.6V172.1C286.1 171.6 286.5 171.2 287 171.2C287.5 171.2 287.9 171.6 287.9 172.1V182.6C287.9 183.2 287.5 183.5 287 183.5Z" fill="#C5DFFF"/>
<path d="M298.8 162.6C298.3 162.6 297.9 162.2 297.9 161.7V157C297.9 156.5 298.3 156.1 298.8 156.1C299.3 156.1 299.7 156.5 299.7 157V161.7C299.6 162.2 299.2 162.6 298.8 162.6Z" fill="#C5DFFF"/>
<path d="M298.8 225.5C298.3 225.5 297.9 225.1 297.9 224.6V214.1C297.9 213.6 298.3 213.2 298.8 213.2C299.3 213.2 299.7 213.6 299.7 214.1V224.6C299.6 225.1 299.2 225.5 298.8 225.5ZM298.8 204.5C298.3 204.5 297.9 204.1 297.9 203.6V193.1C297.9 192.6 298.3 192.2 298.8 192.2C299.3 192.2 299.7 192.6 299.7 193.1V203.6C299.6 204.1 299.2 204.5 298.8 204.5ZM298.8 183.5C298.3 183.5 297.9 183.1 297.9 182.6V172.1C297.9 171.6 298.3 171.2 298.8 171.2C299.3 171.2 299.7 171.6 299.7 172.1V182.6C299.6 183.2 299.2 183.5 298.8 183.5Z" fill="#C5DFFF"/>
<path d="M310.5 162.6C310 162.6 309.6 162.2 309.6 161.7V157C309.6 156.5 310 156.1 310.5 156.1C311 156.1 311.4 156.5 311.4 157V161.7C311.3 162.2 311 162.6 310.5 162.6Z" fill="#C5DFFF"/>
<path d="M310.5 204.5C310 204.5 309.6 204.1 309.6 203.6V193.1C309.6 192.6 310 192.2 310.5 192.2C311 192.2 311.4 192.6 311.4 193.1V203.6C311.3 204.1 311 204.5 310.5 204.5ZM310.5 183.5C310 183.5 309.6 183.1 309.6 182.6V172.1C309.6 171.6 310 171.2 310.5 171.2C311 171.2 311.4 171.6 311.4 172.1V182.6C311.3 183.2 311 183.5 310.5 183.5Z" fill="#C5DFFF"/>
<path d="M322.2 162.6C321.7 162.6 321.3 162.2 321.3 161.7V157C321.3 156.5 321.7 156.1 322.2 156.1C322.7 156.1 323.1 156.5 323.1 157V161.7C323.1 162.2 322.7 162.6 322.2 162.6Z" fill="#C5DFFF"/>
<path d="M322.2 183.5C321.7 183.5 321.3 183.1 321.3 182.6V172.1C321.3 171.6 321.7 171.2 322.2 171.2C322.7 171.2 323.1 171.6 323.1 172.1V182.6C323.1 183.2 322.7 183.5 322.2 183.5Z" fill="#C5DFFF"/>
<path d="M250.8 64.8C250.8 68.6 213.2 72.7 172.5 72.7C131.8 72.7 101 75.5 96.7 69.6C96.1 68.8 96.1 68 96.7 67.3C99.7 63.6 117.2 62.4 120.2 62.2C120.5 62.2 120.6 62.2 120.6 62.2C120.6 62.2 108.6 49 117.8 38.3C127 27.6 136.9 37 136.9 37C136.9 37 133 16.5 144.1 11.4C144.4 11.3 144.7 11.1 145 11C156.9 6.79999 161.5 22.1 161.8 22.9C161.8 22.9 162.1 2.29999 180.4 0.499995C183.5 0.199995 186.3 0.799993 188.7 2.09999C200.2 8.19999 203.3 28.7 203.3 28.7C204.1 27.9 213.1 19.4 222.8 24.9C232.8 30.6 227.3 45.3 227.1 45.7C227.4 45.6 234.5 44 236.8 48C239.1 52.1 236.8 58.4 236.8 58.4C236.8 58.4 242.1 59.3 246.1 60.8C248.4 61.7 250.4 62.8 250.7 64.1C250.8 64.5 250.8 64.6 250.8 64.8Z" fill="#273D7A"/>
<path d="M124.4 58.3C126.6 62.4 128.1 63.9 128.1 63.9C128.1 63.9 124.7 64 120.1 62.2C120.4 62.2 120.5 62.2 120.5 62.2C120.5 62.2 108.5 49 117.7 38.3C126.9 27.6 136.8 37 136.8 37C136.8 37 132.9 16.5 144 11.4C142.8 13.8 141.5 17.8 141.6 22.8C141.8 31.6 144.7 44.2 144.7 44.2C144.7 44.2 132.7 37.3 125 40C117.5 42.7 122.2 54.3 124.4 58.3Z" fill="#072359"/>
<path d="M250.8 64.8C250.8 68.6 213.2 72.7 172.5 72.7C131.8 72.7 101 75.5 96.7 69.6C96.1 68.8 96.1 68 96.7 67.3C101.7 68.9 111.9 70.8 131.8 70.1C165.1 68.8 232 68.6 248.3 65C249.2 64.8 250 64.6 250.8 64.4C250.8 64.5 250.8 64.6 250.8 64.8Z" fill="#072359"/>
<path d="M188.7 2.29998C184.5 2.69998 178.7 4.09998 173.4 8.19998C163.9 15.6 163 29.6 163 29.6L161.9 23.1C161.9 23.1 162.2 2.49998 180.5 0.699976C183.5 0.399976 186.3 0.999982 188.7 2.29998Z" fill="#506893"/>
<path d="M233.4 60.2C233.4 60.2 234.8 55.6 231.9 51.8C229 48 221.2 51 221.2 51C221.2 51 227.4 35.5 219.9 28.9C212.6 22.5 203.7 28.6 203.3 28.9C204.1 28.1 213.1 19.6 222.8 25.1C232.8 30.8 227.3 45.5 227.1 45.9C227.4 45.8 234.5 44.2 236.8 48.2C239.1 52.3 236.8 58.6 236.8 58.6C236.8 58.6 242.1 59.5 246.1 61C242 60.6 233.4 60.2 233.4 60.2Z" fill="#506893"/>
<path d="M88.1 97.3C85.3 100.3 73.8 102 51.7 104.3C33.9 106.2 11.8 106.9 10.2 102.9C8.59998 98.9 22.9 97.3 22.9 97.3C22.9 97.3 18.2 91.7 24.8 84.9C29.6 79.9 37.4 84.7 37.7 84.9C37.6 84.6 30.7 70.4 37.3 63C38.4 61.8 39.8 60.7 41.7 60C41.8 60 41.9 59.9 42 59.9C55.4 55.1 62.8 83 62.8 83C62.8 83 75.5 76.4 79.7 82.3C83.7 87.8 81.4 93.5 81.1 94.2V94.3C81.1 94.3 86.6 94.3 88.2 95.6C88.7 96 88.8 96.6 88.1 97.3Z" fill="#273D7A"/>
<path d="M88.1 97.3C85.3 100.3 73.8 102 51.7 104.3C33.9 106.2 11.8 106.9 10.2 102.9C8.59998 98.9 22.9 97.3 22.9 97.3C22.9 97.3 18.2 91.7 24.8 84.9C29.6 79.9 37.4 84.7 37.7 84.9C37.6 84.6 30.7 70.4 37.3 63C36.8 65.3 36.7 68.6 37.8 72.9C40.6 84.2 45.3 90.7 45.3 90.7C45.3 90.7 33.3 83.7 27.5 87.3C21.7 90.9 28.1 98.4 28.1 98.4C28.1 98.4 16.2 99.3 16.1 102.2C15.9 105 49.6 101.1 65.8 99.5C79.7 98.2 85.5 97 88.3 95.5C88.7 96 88.8 96.6 88.1 97.3Z" fill="#072359"/>
<path d="M81.1 94.2L79.9 94.8C79.9 94.8 80.9 85.7 76.1 83.3C71.2 80.9 60.6 88.2 60.6 88.2C60.6 88.2 59.7 78.6 53.6 69.4C49.7 63.5 44.9 61 42 59.9C55.4 55.1 62.8 83 62.8 83C62.8 83 75.5 76.4 79.7 82.3C83.7 87.8 81.4 93.6 81.1 94.2Z" fill="#506893"/>
<path d="M62.9 114.9L47.6 134.1C47.1 134.8 46 134.2 46.3 133.4L46.4 133.3L51 121.6C51 121.5 51.1 121.4 51 121.3C51 120.9 50.7 120.7 50.3 120.7L44.3 121.4C42.9 121.6 41.9 120.2 42.5 118.9L42.6 118.6L47.6 107.9L47.7 107.7C48 107 47.5 106.3 46.8 106.3L40.8 106.4C38.8 106.4 37.6 104.3 38.6 102.6L38.8 102.2L52.8 78.8C53.1 78.4 53.5 78.2 53.9 78.3C54.4 78.4 54.8 78.9 54.7 79.5L52.1 94.3C52 95.1 52.7 95.8 53.4 95.6L60 94.2C60.5 94.1 61 94.2 61.4 94.4C62.1 94.9 62.5 95.9 62.1 96.8L55.5 110.3C55.2 110.9 55.6 111.6 56.3 111.7C56.3 111.7 56.3 111.7 56.4 111.7L61.6 111.8C61.9 111.8 62.2 111.9 62.4 112C63.3 112.6 63.7 113.9 62.9 114.9Z" fill="#FEC272"/>
<path d="M47.6001 108V107.8C47.9001 107.1 47.4001 106.4 46.7001 106.4L40.7001 106.5C38.7001 106.5 37.5001 104.4 38.5001 102.7L38.7001 102.3C39.0001 102.7 39.5001 103 40.5001 103.1C42.3001 103.2 47.2001 103.1 48.7001 103.1C50.1001 103.3 47.6001 108 47.6001 108Z" fill="#FF8D76"/>
<path d="M51 121.2C51 120.8 50.7 120.6 50.3 120.6L44.3 121.3C42.9 121.5 41.9 120.1 42.5 118.8L42.6 118.5C43.1 118.6 44 118.8 45.4 118.6C47.9 118.3 51.5 117.6 51.8 117.9C52 118.4 51.2 120.7 51 121.2Z" fill="#FF8D76"/>
<path d="M52.0001 94.4C51.9001 95.2 52.6001 95.9 53.3001 95.7C51.4001 96.4 49.5001 96.6 49.8001 94.7C50.1001 93 53.2001 80.7 53.7001 78.4C54.2001 78.5 54.6001 79 54.5001 79.6L52.0001 94.4Z" fill="#FF8D76"/>
<path d="M55.5001 110.5C55.2001 111.1 55.6001 111.8 56.3001 111.9C56.2001 111.9 56.1001 111.9 56.0001 111.9C54.3001 111.9 52.7001 111.4 53.9001 109.1C54.9001 107.1 60.1001 97.3 61.5001 94.7C62.2001 95.2 62.6001 96.2 62.2001 97.1L55.5001 110.5Z" fill="#FF8D76"/>
<path d="M62.9 114.9L47.6 134.1C47.1 134.8 46 134.2 46.3 133.4L46.4 133.3C47 132.7 48.1 131.7 49.6 129.5C51.4 126.9 60.5 114.7 62.4 112.1C63.3 112.6 63.7 113.9 62.9 114.9Z" fill="#FF8D76"/>
<path d="M189.2 126.6L152.4 172.8C151.1 174.4 148.6 173 149.3 171L149.4 170.7L160.6 142.5C160.7 142.3 160.7 142.1 160.7 141.8C160.7 141 159.9 140.2 159 140.4L144.6 142.1C141.3 142.5 138.9 139.2 140.3 136.2L140.6 135.6L152.5 109.9L152.7 109.5C153.4 107.9 152.2 106 150.5 106.1L136.1 106.4C131.3 106.5 128.3 101.3 130.8 97.2L131.3 96.4L164.9 40.2C165.5 39.1 166.6 38.8 167.6 39C168.8 39.3 169.8 40.4 169.5 41.9L163.3 77.4C163 79.3 164.6 80.9 166.5 80.5L182.5 77.1C183.7 76.8 184.9 77.1 185.8 77.7C187.6 78.8 188.5 81.2 187.4 83.4L171.6 115.9C170.9 117.4 171.9 119.1 173.5 119.2H173.6L186 119.4C186.7 119.4 187.3 119.6 187.9 119.9C190.1 121 191.1 124.3 189.2 126.6Z" fill="#FEC272"/>
<path d="M152.5 109.9H152.4L152.6 109.5C153.3 107.9 152.1 106 150.4 106.1L136 106.4C131.2 106.5 128.2 101.3 130.7 97.2L131.2 96.4C131.9 97.2 133.2 98.2 135.4 98.3C139.7 98.5 151.5 98.2 155 98.4C158.5 98.6 152.5 109.9 152.5 109.9Z" fill="#FF8D76"/>
<path d="M160.6 141.8C160.6 141 159.8 140.2 158.9 140.4L144.5 142.1C141.2 142.5 138.8 139.2 140.2 136.2L140.5 135.6C141.8 135.9 144 136.2 147.2 135.8C153.1 135 161.9 133.3 162.6 134.2C163.1 135 161.1 140.6 160.6 141.8Z" fill="#FF8D76"/>
<path d="M163.1 77.4C162.8 79.3 164.4 80.9 166.3 80.5C161.6 82.2 157.1 82.6 157.9 78.2C158.6 74.2 166 44.5 167.3 39.1C168.5 39.4 169.5 40.5 169.2 42L163.1 77.4Z" fill="#FF8D76"/>
<path d="M171.4 115.9C170.7 117.4 171.7 119.1 173.3 119.2C173 119.2 172.8 119.2 172.5 119.2C168.3 119.2 164.6 118 167.4 112.4C169.8 107.5 182.2 84.1 185.6 77.7C187.4 78.8 188.3 81.2 187.2 83.4L171.4 115.9Z" fill="#FF8D76"/>
<path d="M189.2 126.6L152.4 172.8C151.1 174.4 148.6 173 149.3 171L149.4 170.7C150.9 169.3 153.4 166.8 157.1 161.6C161.5 155.3 183.3 126 187.8 119.9C190.1 121 191.1 124.3 189.2 126.6Z" fill="#FF8D76"/>
<path d="M297.1 153.6L284.4 169.5C284 170.1 283.1 169.6 283.3 168.9V168.8L287.1 159.1C287.1 159 287.1 158.9 287.1 158.9C287.1 158.6 286.8 158.4 286.5 158.4L281.5 159C280.4 159.1 279.5 158 280 157L280.1 156.8L284.2 148L284.3 147.9C284.6 147.3 284.1 146.7 283.5 146.7L278.5 146.8C276.9 146.8 275.8 145 276.7 143.6L276.9 143.3L288.5 123.9C288.7 123.5 289.1 123.4 289.4 123.5C289.8 123.6 290.2 124 290.1 124.5L288 136.7C287.9 137.3 288.5 137.9 289.1 137.8L294.6 136.6C295 136.5 295.4 136.6 295.7 136.8C296.3 137.2 296.6 138 296.3 138.8L290.8 150C290.6 150.5 290.9 151.1 291.4 151.1L295.7 151.2C295.9 151.2 296.2 151.3 296.3 151.4C297.4 151.7 297.7 152.8 297.1 153.6Z" fill="#FEC272"/>
<path d="M284.5 147.8V147.7C284.8 147.1 284.3 146.5 283.7 146.5L278.7 146.6C277.1 146.6 276 144.8 276.9 143.4L277.1 143.1C277.3 143.4 277.8 143.7 278.6 143.8C280.1 143.9 284.1 143.8 285.4 143.8C286.7 143.8 284.5 147.8 284.5 147.8Z" fill="#FF8D76"/>
<path d="M287.3 158.8C287.3 158.5 287 158.3 286.7 158.3L281.7 158.9C280.6 159 279.7 157.9 280.2 156.9L280.3 156.7C280.7 156.8 281.5 156.9 282.6 156.8C284.6 156.5 287.7 156 287.9 156.3C288.1 156.5 287.4 158.4 287.3 158.8Z" fill="#FF8D76"/>
<path d="M288.1 136.6C288 137.2 288.6 137.8 289.2 137.7C287.6 138.3 286 138.4 286.3 136.9C286.5 135.5 289.1 125.3 289.6 123.4C290 123.5 290.4 123.9 290.3 124.4L288.1 136.6Z" fill="#FF8D76"/>
<path d="M291 149.9C290.8 150.4 291.1 151 291.6 151C291.5 151 291.4 151 291.3 151C289.9 151 288.6 150.6 289.6 148.6C290.4 146.9 294.7 138.8 295.9 136.6C296.5 137 296.8 137.8 296.5 138.6L291 149.9Z" fill="#FF8D76"/>
<path d="M297.1 153.6L284.4 169.5C284 170.1 283.1 169.6 283.3 168.9V168.8C283.8 168.3 284.7 167.5 285.9 165.7C287.4 163.5 294.9 153.4 296.5 151.3C297.4 151.7 297.7 152.8 297.1 153.6Z" fill="#FF8D76"/>
<path d="M326.3 143.9C326.2 146.2 308 148.7 287.7 149.2C267.4 149.7 254.5 147.7 255.9 145.4C257.3 143.2 264.7 142.4 264.7 142.4C264.7 142.4 257.7 137 261.4 129.4C265.2 121.8 273.3 127.2 273.3 127.2C273.3 127.2 270.7 115.6 278.3 111.9C279.5 111.3 280.9 110.9 282.6 110.8C283.5 110.7 284.3 110.8 285.2 110.9C296.1 112.5 300.7 129.8 300.7 129.8C300.7 129.8 306.9 123.3 311.5 127.2C316.1 131.1 314.1 137.9 314.1 137.9C314.1 137.9 316.3 136.5 319.1 137.2C320.6 137.6 321.2 138.6 321.5 139.6C321.8 140.5 321.8 141.3 321.8 141.3C321.8 141.3 324.2 141.5 325.5 142.4C326 142.7 326.3 143.2 326.3 143.9Z" fill="#273D7A"/>
<path d="M326.3 143.9C326.2 146.2 308 148.7 287.7 149.2C267.4 149.7 254.5 147.7 255.9 145.4C257.3 143.2 264.7 142.4 264.7 142.4C264.7 142.4 257.7 137 261.4 129.4C265.2 121.8 273.3 127.2 273.3 127.2C273.3 127.2 270.7 115.6 278.3 111.9C277.5 113.9 276.5 117.1 276.7 120.4C277.2 126.6 279.7 131.4 279.9 131.7C279.5 131.5 270.7 127.1 266 129.8C261.2 132.6 268.2 143.4 268.2 143.4C268.2 143.4 261.8 144.8 264.9 146.2C268 147.6 298.1 147.4 309.6 146.1C317.3 145.2 322.7 143.5 325.5 142.4C326 142.7 326.3 143.2 326.3 143.9Z" fill="#072359"/>
<path d="M321.5 139.5C321.2 139.3 320.8 139.2 320.5 139C317.7 137.6 311.9 140.4 311.9 140.4C311.9 140.4 313.1 131.7 309.6 129.4C306.1 127.1 299.6 134.6 299.6 134.6C299.6 134.6 298.8 129.9 294.7 121.8C292.2 116.9 288.1 113.1 285.2 110.8C296.1 112.4 300.7 129.7 300.7 129.7C300.7 129.7 306.9 123.2 311.5 127.1C316.1 131 314.1 137.8 314.1 137.8C314.1 137.8 316.3 136.4 319.1 137.1C320.5 137.4 321.2 138.5 321.5 139.5Z" fill="#506893"/>
<path d="M171.2 394.4V439.4C171.2 443 168.3 446 164.6 446H48.3C44.7 446 41.7 443.1 41.7 439.4V394.4C41.7 390.8 44.6 387.8 48.3 387.8H164.7C168.3 387.8 171.2 390.8 171.2 394.4Z" fill="#E1ECFF"/>
<path d="M61 403.4C62.8777 403.4 64.4 401.878 64.4 400C64.4 398.122 62.8777 396.6 61 396.6C59.1222 396.6 57.6 398.122 57.6 400C57.6 401.878 59.1222 403.4 61 403.4Z" fill="#273D7A"/>
<path d="M73.1 403.4C74.9777 403.4 76.5 401.878 76.5 400C76.5 398.122 74.9777 396.6 73.1 396.6C71.2222 396.6 69.7 398.122 69.7 400C69.7 401.878 71.2222 403.4 73.1 403.4Z" fill="#FF8D76"/>
<path d="M85.1 403.4C86.9777 403.4 88.5 401.878 88.5 400C88.5 398.122 86.9777 396.6 85.1 396.6C83.2222 396.6 81.7 398.122 81.7 400C81.7 401.878 83.2222 403.4 85.1 403.4Z" fill="#FF8D76"/>
<path d="M153 418H123.3C122 418 120.9 416.9 120.9 415.6C120.9 414.3 122 413.2 123.3 413.2H153C154.3 413.2 155.4 414.3 155.4 415.6C155.4 416.9 154.4 418 153 418Z" fill="#273D7A"/>
<path d="M153.6 420.6C156.361 420.6 158.6 418.361 158.6 415.6C158.6 412.839 156.361 410.6 153.6 410.6C150.839 410.6 148.6 412.839 148.6 415.6C148.6 418.361 150.839 420.6 153.6 420.6Z" fill="#FF8D76"/>
<path d="M111.2 446H56.8999L58.8999 441.1C59.8999 438.6 62.2999 437 64.9999 437H103.2C105.9 437 108.2 438.6 109.3 441.1L111.2 446Z" fill="#273D7A"/>
<path d="M157.2 446H57.6V455.9H157.2V446Z" fill="#273D7A"/>
<path d="M157.2 446H57.6V450.9H157.2V446Z" fill="#072359"/>
<path d="M52.1 387.8V446H48.3C44.7 446 41.7 443.1 41.7 439.4V394.4C41.7 390.8 44.6 387.8 48.3 387.8H52.1Z" fill="#CDE0FC"/>
<path d="M171.2 394.4V439.4C171.2 443 168.3 446 164.6 446H162.5V387.8H164.6C168.3 387.8 171.2 390.8 171.2 394.4Z" fill="#F0F5FC"/>
<path d="M171.2 341.9V373.5C171.2 377.1 168.3 380.1 164.6 380.1H48.3C44.7 380.1 41.7 377.2 41.7 373.5V341.9C41.7 338.3 44.6 335.3 48.3 335.3H164.7C168.3 335.3 171.2 338.3 171.2 341.9Z" fill="#E1ECFF"/>
<path d="M61 350.9C62.8777 350.9 64.4 349.378 64.4 347.5C64.4 345.622 62.8777 344.1 61 344.1C59.1222 344.1 57.6 345.622 57.6 347.5C57.6 349.378 59.1222 350.9 61 350.9Z" fill="#FF8D76"/>
<path d="M73.1 350.9C74.9777 350.9 76.5 349.378 76.5 347.5C76.5 345.622 74.9777 344.1 73.1 344.1C71.2222 344.1 69.7 345.622 69.7 347.5C69.7 349.378 71.2222 350.9 73.1 350.9Z" fill="#FF8D76"/>
<path d="M85.1 350.9C86.9777 350.9 88.5 349.378 88.5 347.5C88.5 345.622 86.9777 344.1 85.1 344.1C83.2222 344.1 81.7 345.622 81.7 347.5C81.7 349.378 83.2222 350.9 85.1 350.9Z" fill="#273D7A"/>
<path d="M153 355.7H123.3C122 355.7 120.9 354.6 120.9 353.3C120.9 352 122 350.9 123.3 350.9H153C154.3 350.9 155.4 352 155.4 353.3C155.4 354.6 154.4 355.7 153 355.7Z" fill="#273D7A"/>
<path d="M153.6 358.2C156.361 358.2 158.6 355.961 158.6 353.2C158.6 350.439 156.361 348.2 153.6 348.2C150.839 348.2 148.6 350.439 148.6 353.2C148.6 355.961 150.839 358.2 153.6 358.2Z" fill="#FF8D76"/>
<path d="M111.2 380.1H56.8999L58.8999 375.2C59.8999 372.7 62.2999 371.1 64.9999 371.1H103.2C105.9 371.1 108.2 372.7 109.3 375.2L111.2 380.1Z" fill="#273D7A"/>
<path d="M157.2 380.1H57.6V387.8H157.2V380.1Z" fill="#273D7A"/>
<path d="M157.2 380.1H57.6V384H157.2V380.1Z" fill="#072359"/>
<path d="M52.1 335.3V380H48.3C44.7 380 41.7 377.1 41.7 373.4V341.8C41.7 338.2 44.6 335.2 48.3 335.2H52.1V335.3Z" fill="#CDE0FC"/>
<path d="M171.2 341.9V373.5C171.2 377.1 168.3 380.1 164.6 380.1H162.5V335.4H164.6C168.3 335.3 171.2 338.3 171.2 341.9Z" fill="#F0F5FC"/>
<path d="M171.2 295.9V321C171.2 324.6 168.3 327.6 164.6 327.6H48.3C44.7 327.6 41.7 324.7 41.7 321V295.8C41.7 292.2 44.6 289.2 48.3 289.2H164.7C168.3 289.3 171.2 292.2 171.2 295.9Z" fill="#E1ECFF"/>
<path d="M61 304.9C62.8777 304.9 64.4 303.378 64.4 301.5C64.4 299.622 62.8777 298.1 61 298.1C59.1222 298.1 57.6 299.622 57.6 301.5C57.6 303.378 59.1222 304.9 61 304.9Z" fill="#273D7A"/>
<path d="M73.1 304.9C74.9777 304.9 76.5 303.378 76.5 301.5C76.5 299.622 74.9777 298.1 73.1 298.1C71.2222 298.1 69.7 299.622 69.7 301.5C69.7 303.378 71.2222 304.9 73.1 304.9Z" fill="#FF8D76"/>
<path d="M85.1 304.9C86.9777 304.9 88.5 303.378 88.5 301.5C88.5 299.622 86.9777 298.1 85.1 298.1C83.2222 298.1 81.7 299.622 81.7 301.5C81.7 303.378 83.2222 304.9 85.1 304.9Z" fill="#FF8D76"/>
<path d="M153 309.6H123.3C122 309.6 120.9 308.5 120.9 307.2C120.9 305.9 122 304.8 123.3 304.8H153C154.3 304.8 155.4 305.9 155.4 307.2C155.4 308.5 154.4 309.6 153 309.6Z" fill="#273D7A"/>
<path d="M153.6 312.2C156.361 312.2 158.6 309.961 158.6 307.2C158.6 304.439 156.361 302.2 153.6 302.2C150.839 302.2 148.6 304.439 148.6 307.2C148.6 309.961 150.839 312.2 153.6 312.2Z" fill="#FF8D76"/>
<path d="M111.2 327.6H56.8999L58.8999 322.7C59.8999 320.2 62.2999 318.6 64.9999 318.6H103.2C105.9 318.6 108.2 320.2 109.3 322.7L111.2 327.6Z" fill="#273D7A"/>
<path d="M157.2 327.6H57.6V335.3H157.2V327.6Z" fill="#273D7A"/>
<path d="M157.2 327.6H57.6V331.5H157.2V327.6Z" fill="#072359"/>
<path d="M52.1 289.3V327.6H48.3C44.7 327.6 41.7 324.7 41.7 321V295.8C41.7 292.2 44.6 289.2 48.3 289.2H52.1V289.3Z" fill="#CDE0FC"/>
<path d="M171.2 295.9V321C171.2 324.6 168.3 327.6 164.6 327.6H162.5V289.3H164.6C168.3 289.3 171.2 292.2 171.2 295.9Z" fill="#F0F5FC"/>
<path d="M171.2 249.8V275C171.2 278.6 168.3 281.6 164.6 281.6H48.3C44.7 281.6 41.7 278.7 41.7 275V249.8C41.7 246.2 44.6 243.2 48.3 243.2H164.7C168.3 243.3 171.2 246.2 171.2 249.8Z" fill="#E1ECFF"/>
<path d="M61 258.8C62.8777 258.8 64.4 257.278 64.4 255.4C64.4 253.522 62.8777 252 61 252C59.1222 252 57.6 253.522 57.6 255.4C57.6 257.278 59.1222 258.8 61 258.8Z" fill="#FF8D76"/>
<path d="M73.1 258.8C74.9777 258.8 76.5 257.278 76.5 255.4C76.5 253.522 74.9777 252 73.1 252C71.2222 252 69.7 253.522 69.7 255.4C69.7 257.278 71.2222 258.8 73.1 258.8Z" fill="#FF8D76"/>
<path d="M85.1 258.8C86.9777 258.8 88.5 257.278 88.5 255.4C88.5 253.522 86.9777 252 85.1 252C83.2222 252 81.7 253.522 81.7 255.4C81.7 257.278 83.2222 258.8 85.1 258.8Z" fill="#273D7A"/>
<path d="M153 263.6H123.3C122 263.6 120.9 262.5 120.9 261.2C120.9 259.9 122 258.8 123.3 258.8H153C154.3 258.8 155.4 259.9 155.4 261.2C155.4 262.5 154.4 263.6 153 263.6Z" fill="#273D7A"/>
<path d="M153.6 266.2C156.361 266.2 158.6 263.961 158.6 261.2C158.6 258.439 156.361 256.2 153.6 256.2C150.839 256.2 148.6 258.439 148.6 261.2C148.6 263.961 150.839 266.2 153.6 266.2Z" fill="#FF8D76"/>
<path d="M111.2 281.6H56.8999L58.8999 276.7C59.8999 274.2 62.2999 272.6 64.9999 272.6H103.2C105.9 272.6 108.2 274.2 109.3 276.7L111.2 281.6Z" fill="#273D7A"/>
<path d="M157.2 281.6H57.6V289.3H157.2V281.6Z" fill="#273D7A"/>
<path d="M157.2 281.6H57.6V285.5H157.2V281.6Z" fill="#072359"/>
<path d="M52.1 243.3V281.6H48.3C44.7 281.6 41.7 278.7 41.7 275V249.8C41.7 246.2 44.6 243.2 48.3 243.2H52.1V243.3Z" fill="#CDE0FC"/>
<path d="M171.2 249.8V275C171.2 278.6 168.3 281.6 164.6 281.6H162.5V243.3H164.6C168.3 243.3 171.2 246.2 171.2 249.8Z" fill="#F0F5FC"/>
<path d="M243.5 333.3V450.1C243.5 453.2 240.9 455.8 237.8 455.8H179.5C176.3 455.8 173.8 453.2 173.8 450.1V333.3C173.8 330.1 176.4 327.6 179.5 327.6H237.8C240.9 327.6 243.5 330.2 243.5 333.3Z" fill="#FF97C9"/>
<path d="M192.3 327.6V455.8H179.5C176.3 455.8 173.8 453.2 173.8 450.1V333.3C173.8 330.1 176.4 327.6 179.5 327.6H192.3Z" fill="#F774B9"/>
<path d="M181.6 341H211.5C213.1 341 214.3 342.3 214.3 343.8V357.3C214.3 358.9 213 360.1 211.5 360.1H181.6C180 360.1 178.8 358.8 178.8 357.3V343.8C178.7 342.2 180 341 181.6 341Z" fill="#5A7FDB"/>
<path d="M238.5 343.8V357.3C238.5 358.9 237.2 360.1 235.7 360.1H221.9C220.3 360.1 219.1 358.8 219.1 357.3V343.8C219.1 342.2 220.4 341 221.9 341H235.7C237.2 341 238.5 342.2 238.5 343.8Z" fill="#273D7A"/>
<path d="M216.9 446H200.3C199.1 446 198.1 445 198.1 443.8V418.3C198.1 417.1 199.1 416.1 200.3 416.1H216.9C218.1 416.1 219.1 417.1 219.1 418.3V443.8C219.1 445 218.1 446 216.9 446Z" fill="#273D7A"/>
<path d="M215.6 433H201.6C200.7 433 200 432.3 200 431.4V420.4C200 419.5 200.7 418.8 201.6 418.8H215.6C216.5 418.8 217.2 419.5 217.2 420.4V431.4C217.3 432.3 216.5 433 215.6 433Z" fill="#142966"/>
<path d="M215.4 443.3H201.8C200.8 443.3 200 442.5 200 441.5V436.8C200 435.8 200.8 435 201.8 435H215.4C216.4 435 217.2 435.8 217.2 436.8V441.5C217.3 442.5 216.4 443.3 215.4 443.3Z" fill="#142966"/>
<path d="M208.6 441.8C210.036 441.8 211.2 440.636 211.2 439.2C211.2 437.764 210.036 436.6 208.6 436.6C207.164 436.6 206 437.764 206 439.2C206 440.636 207.164 441.8 208.6 441.8Z" fill="#FEC272"/>
<path d="M238.5 368.6V405C238.5 406.7 237.2 408.1 235.5 408.1H181.6C180.6 408.1 179.6 407.5 179.1 406.7C178.8 406.2 178.6 405.6 178.6 405V368.6C178.6 366.9 179.9 365.5 181.6 365.5H235.5C236.9 365.5 238.1 366.5 238.4 367.9C238.5 368.2 238.5 368.4 238.5 368.6Z" fill="#273D7A"/>
<path d="M236.3 370.6V403.1C236.3 404.6 235.1 405.8 233.6 405.8H183.7C182.7 405.8 181.9 405.3 181.4 404.5C181.1 404.1 181 403.6 181 403V370.5C181 369 182.2 367.8 183.7 367.8H233.6C234.9 367.8 236 368.7 236.3 370C236.3 370.2 236.3 370.4 236.3 370.6Z" fill="#94ADEA"/>
<path d="M236.3 370L197.4 405.9H183.7C182.7 405.9 181.9 405.4 181.4 404.6L221.3 367.8H233.6C234.9 367.8 236 368.7 236.3 370Z" fill="#738DE0"/>
<path d="M236.3 383.1V399.1L229 405.9H211.6L236.3 383.1Z" fill="#738DE0"/>
<path d="M204.5 367.8L180.9 389.6V373.5L187.1 367.8H204.5Z" fill="#738DE0"/>
<path d="M153.6 241.5H96.2L97.2 238.7L103.3 222.2L108.7 207.5L114.8 191L121 174C121.2 173.3 121.6 172.8 122.1 172.4C124.1 170.5 127.7 171.1 128.8 174L131.3 180.9L135.1 191.3L138.5 200.6L142.3 211L145.7 220.3L149.5 230.7L153.6 241.5Z" fill="#FF8D76"/>
<path d="M135.1 191.3L117.7 202L108.7 207.5L114.7 191.1L119.8 188L131.3 180.9L135.1 191.3Z" fill="#273D7A"/>
<path d="M142.3 210.9L113.7 228.5L97.2 238.7L103.3 222.2L115.8 214.5L138.5 200.5L142.3 210.9Z" fill="#273D7A"/>
<path d="M149.6 230.6L131.8 241.5H111.2L111.8 241.1L145.8 220.2L149.6 230.6Z" fill="#273D7A"/>
<path d="M122.1 172.4L111.8 241.5H96.2L97.2 238.7L103.3 222.2L108.7 207.5L114.8 191L121 174C121.3 173.4 121.6 172.8 122.1 172.4Z" fill="#FF8D76"/>
<path d="M111.2 241.5L111.8 241.1V241.5H111.2Z" fill="#FF8D76"/>
<path d="M115.8 214.5L113.7 228.5L97.2 238.7L103.3 222.2L115.8 214.5Z" fill="#072359"/>
<path d="M119.8 188L117.7 202L108.7 207.5L114.7 191.1L119.8 188Z" fill="#072359"/>
<path d="M154.4 243.3H93.9C92.1 243.3 90.7 241.8 90.7 240.1V239.9C90.7 238.1 92.2 236.7 93.9 236.7H154.4C156.2 236.7 157.6 238.2 157.6 239.9V240.1C157.6 241.8 156.2 243.3 154.4 243.3Z" fill="#FF8D76"/>
<path d="M42.4999 232.9L29.2999 199.3L20.8999 203.8L41.4999 233.4L42.4999 232.9Z" fill="#FEC272"/>
<path d="M8.09998 199.3L0.0999756 207.9L36.3 237.9L37.9 236.4L8.09998 199.3Z" fill="#FEC272"/>
<path d="M7.19997 221.7L2.59998 229.3L32.7 242.6L33.4 241.4L7.19997 221.7Z" fill="#FEC272"/>
<path d="M237.2 301.7L235.1 316.1C235.1 316.1 241.2 315.8 245.8 319.7C251.8 324.9 252.5 329.7 252.5 329.7L275.1 318.2C275.1 318.2 260 323.2 255 318.1C250 313 254.2 302.7 254.2 302.7C254.2 302.7 247.5 311.4 242.5 309.9C237.6 308.5 237.2 301.7 237.2 301.7Z" fill="#FEC272"/>
</svg>
