<svg id="Group_10" data-name="Group 10" xmlns="http://www.w3.org/2000/svg" width="1366" height="768" viewBox="0 0 1366 768">
  <rect id="Rectangle_2" data-name="Rectangle 2" width="1366" height="768" fill="#e05353"/>
  <path id="clipboard-check" d="M47.153,8.981H39.592a13.393,13.393,0,0,0-25.291,0H6.736A6.736,6.736,0,0,0,0,15.718v49.4a6.738,6.738,0,0,0,6.736,6.736H47.153a6.736,6.736,0,0,0,6.736-6.736v-49.4A6.736,6.736,0,0,0,47.153,8.981Zm-20.208,0a4.491,4.491,0,1,1-4.491,4.491A4.491,4.491,0,0,1,26.944,8.981ZM39.7,36.88,27.351,52.6a3.359,3.359,0,0,1-2.32,1.272c-.108-.107-.22.019-.333.019a3.366,3.366,0,0,1-2.192-.811l-7.859-6.736a3.368,3.368,0,0,1,4.385-5.113l5.19,4.447L34.4,32.726a3.368,3.368,0,0,1,5.3,4.155Z" transform="matrix(0.899, -0.438, 0.438, 0.899, 305.536, 249.385)" fill="#b13d3d"/>
  <path id="clipboard-check-2" data-name="clipboard-check" d="M47.153,8.981H39.592a13.393,13.393,0,0,0-25.291,0H6.736A6.736,6.736,0,0,0,0,15.718v49.4a6.738,6.738,0,0,0,6.736,6.736H47.153a6.736,6.736,0,0,0,6.736-6.736v-49.4A6.736,6.736,0,0,0,47.153,8.981Zm-20.208,0a4.491,4.491,0,1,1-4.491,4.491A4.491,4.491,0,0,1,26.944,8.981ZM39.7,36.88,27.351,52.6a3.359,3.359,0,0,1-2.32,1.272c-.108-.107-.22.019-.333.019a3.366,3.366,0,0,1-2.192-.811l-7.859-6.736a3.368,3.368,0,0,1,4.385-5.113l5.19,4.447L34.4,32.726a3.368,3.368,0,0,1,5.3,4.155Z" transform="matrix(0.899, -0.438, 0.438, 0.899, 60.034, 249.385)" fill="#b13d3d"/>
  <path id="clipboard-check-3" data-name="clipboard-check" d="M47.153,8.981H39.592a13.393,13.393,0,0,0-25.291,0H6.736A6.736,6.736,0,0,0,0,15.718v49.4a6.738,6.738,0,0,0,6.736,6.736H47.153a6.736,6.736,0,0,0,6.736-6.736v-49.4A6.736,6.736,0,0,0,47.153,8.981Zm-20.208,0a4.491,4.491,0,1,1-4.491,4.491A4.491,4.491,0,0,1,26.944,8.981ZM39.7,36.88,27.351,52.6a3.359,3.359,0,0,1-2.32,1.272c-.108-.107-.22.019-.333.019a3.366,3.366,0,0,1-2.192-.811l-7.859-6.736a3.368,3.368,0,0,1,4.385-5.113l5.19,4.447L34.4,32.726a3.368,3.368,0,0,1,5.3,4.155Z" transform="matrix(0.899, -0.438, 0.438, 0.899, 1163.569, 124.939)" fill="#b13d3d"/>
  <path id="clipboard-check-4" data-name="clipboard-check" d="M47.153,8.981H39.592a13.393,13.393,0,0,0-25.291,0H6.736A6.736,6.736,0,0,0,0,15.718v49.4a6.738,6.738,0,0,0,6.736,6.736H47.153a6.736,6.736,0,0,0,6.736-6.736v-49.4A6.736,6.736,0,0,0,47.153,8.981Zm-20.208,0a4.491,4.491,0,1,1-4.491,4.491A4.491,4.491,0,0,1,26.944,8.981ZM39.7,36.88,27.351,52.6a3.359,3.359,0,0,1-2.32,1.272c-.108-.107-.22.019-.333.019a3.366,3.366,0,0,1-2.192-.811l-7.859-6.736a3.368,3.368,0,0,1,4.385-5.113l5.19,4.447L34.4,32.726a3.368,3.368,0,0,1,5.3,4.155Z" transform="matrix(0.899, -0.438, 0.438, 0.899, 1227.536, 532.319)" fill="#b13d3d"/>
  <path id="clipboard-check-5" data-name="clipboard-check" d="M29.649,5.647H24.894a8.421,8.421,0,0,0-15.9,0H4.236A4.235,4.235,0,0,0,0,9.883v31.06a4.237,4.237,0,0,0,4.236,4.236H29.649a4.235,4.235,0,0,0,4.236-4.236V9.883A4.235,4.235,0,0,0,29.649,5.647Zm-12.707,0a2.824,2.824,0,1,1-2.824,2.824A2.824,2.824,0,0,1,16.942,5.647Zm8.021,17.542L17.2,33.072a2.112,2.112,0,0,1-1.459.8c-.068-.067-.139.012-.209.012a2.116,2.116,0,0,1-1.378-.51L9.21,29.138a2.118,2.118,0,1,1,2.757-3.215l3.263,2.8,6.4-8.143a2.117,2.117,0,0,1,3.333,2.612Z" transform="translate(653.656 437.03) rotate(30)" fill="#b13d3d"/>
  <path id="list-ul" d="M16,50.991a2.991,2.991,0,1,1,2.991,2.991A2.991,2.991,0,0,1,16,50.991ZM44.913,49a1.994,1.994,0,0,1,0,3.988H26.967a1.994,1.994,0,0,1,0-3.988Zm0,9.97a1.994,1.994,0,1,1,0,3.988H26.967a1.994,1.994,0,1,1,0-3.988Zm0,9.97a1.994,1.994,0,0,1,0,3.988H26.967a1.994,1.994,0,0,1,0-3.988ZM16,70.931a2.991,2.991,0,1,1,2.991,2.991A2.991,2.991,0,0,1,16,70.931Zm5.982-9.97a2.991,2.991,0,1,1-2.991-2.991A2.991,2.991,0,0,1,21.982,60.961Z" transform="matrix(0.966, 0.259, -0.259, 0.966, 103.677, 484.457)" fill="rgba(48,3,3,0.26)"/>
  <path id="list-ul-2" data-name="list-ul" d="M16,50.991a2.991,2.991,0,1,1,2.991,2.991A2.991,2.991,0,0,1,16,50.991ZM44.913,49a1.994,1.994,0,0,1,0,3.988H26.967a1.994,1.994,0,0,1,0-3.988Zm0,9.97a1.994,1.994,0,1,1,0,3.988H26.967a1.994,1.994,0,1,1,0-3.988Zm0,9.97a1.994,1.994,0,0,1,0,3.988H26.967a1.994,1.994,0,0,1,0-3.988ZM16,70.931a2.991,2.991,0,1,1,2.991,2.991A2.991,2.991,0,0,1,16,70.931Zm5.982-9.97a2.991,2.991,0,1,1-2.991-2.991A2.991,2.991,0,0,1,21.982,60.961Z" transform="matrix(0.966, 0.259, -0.259, 0.966, 909.677, 587.457)" fill="rgba(48,3,3,0.26)"/>
  <path id="clock" d="M16.667,33.333A16.667,16.667,0,1,1,33.333,16.667,16.665,16.665,0,0,1,16.667,33.333ZM15.1,16.667a1.4,1.4,0,0,0,.7,1.243l6.25,4.167A1.434,1.434,0,0,0,24.16,21.7a1.508,1.508,0,0,0-.378-2.168l-5.553-3.7V7.813A1.573,1.573,0,0,0,16.608,6.25a1.6,1.6,0,0,0-1.563,1.563Z" transform="translate(37.087 43.319)" fill="rgba(48,3,3,0.26)"/>
  <path id="clock-2" data-name="clock" d="M16.667,33.333A16.667,16.667,0,1,1,33.333,16.667,16.665,16.665,0,0,1,16.667,33.333ZM15.1,16.667a1.4,1.4,0,0,0,.7,1.243l6.25,4.167A1.434,1.434,0,0,0,24.16,21.7a1.508,1.508,0,0,0-.378-2.168l-5.553-3.7V7.813A1.573,1.573,0,0,0,16.608,6.25a1.6,1.6,0,0,0-1.563,1.563Z" transform="translate(1045.087 395.319)" fill="rgba(48,3,3,0.26)"/>
  <path id="clock-3" data-name="clock" d="M16.667,33.333A16.667,16.667,0,1,1,33.333,16.667,16.665,16.665,0,0,1,16.667,33.333ZM15.1,16.667a1.4,1.4,0,0,0,.7,1.243l6.25,4.167A1.434,1.434,0,0,0,24.16,21.7a1.508,1.508,0,0,0-.378-2.168l-5.553-3.7V7.813A1.573,1.573,0,0,0,16.608,6.25a1.6,1.6,0,0,0-1.563,1.563Z" transform="translate(970.087 43.319)" fill="rgba(48,3,3,0.26)"/>
  <path id="clock-4" data-name="clock" d="M16.667,33.333A16.667,16.667,0,1,1,33.333,16.667,16.665,16.665,0,0,1,16.667,33.333ZM15.1,16.667a1.4,1.4,0,0,0,.7,1.243l6.25,4.167A1.434,1.434,0,0,0,24.16,21.7a1.508,1.508,0,0,0-.378-2.168l-5.553-3.7V7.813A1.573,1.573,0,0,0,16.608,6.25a1.6,1.6,0,0,0-1.563,1.563Z" transform="translate(240.087 395.319)" fill="rgba(48,3,3,0.26)"/>
  <path id="notes" d="M62.925,78.656,78.656,62.925H62.925ZM70.79,15.584H23.6A7.836,7.836,0,0,0,15.731,23.3V70.5A7.936,7.936,0,0,0,23.6,78.656H57.681l0-15.731a5.259,5.259,0,0,1,5.244-5.244H78.656V23.449A7.964,7.964,0,0,0,70.79,15.584ZM0,58.992V19.664A19.686,19.686,0,0,1,19.664,0H58.992a3.933,3.933,0,0,1,0,7.866H19.664a11.812,11.812,0,0,0-11.8,11.8V58.992a3.933,3.933,0,0,1-7.866,0Z" transform="translate(743.277 213.536) rotate(-60)" fill="#b13d3d"/>
  <path id="notes-2" data-name="notes" d="M30.675,38.344l7.669-7.669H30.675ZM34.509,7.6H11.5a3.82,3.82,0,0,0-3.834,3.762V34.366A3.869,3.869,0,0,0,11.5,38.344H28.119V30.675a2.564,2.564,0,0,1,2.556-2.556h7.668V11.431A3.882,3.882,0,0,0,34.509,7.6ZM0,28.758V9.586A9.6,9.6,0,0,1,9.586,0H28.758a1.917,1.917,0,0,1,0,3.834H9.586A5.758,5.758,0,0,0,3.834,9.586V28.758a1.917,1.917,0,0,1-3.834,0Z" transform="translate(850.723 512.153) rotate(-60)" fill="#b13d3d"/>
  <path id="notes-3" data-name="notes" d="M30.675,38.344l7.669-7.669H30.675ZM34.509,7.6H11.5a3.82,3.82,0,0,0-3.834,3.762V34.366A3.869,3.869,0,0,0,11.5,38.344H28.119V30.675a2.564,2.564,0,0,1,2.556-2.556h7.668V11.431A3.882,3.882,0,0,0,34.509,7.6ZM0,28.758V9.586A9.6,9.6,0,0,1,9.586,0H28.758a1.917,1.917,0,0,1,0,3.834H9.586A5.758,5.758,0,0,0,3.834,9.586V28.758a1.917,1.917,0,0,1-3.834,0Z" transform="translate(175.723 91.83) rotate(-60)" fill="#b13d3d"/>
  <path id="notes-4" data-name="notes" d="M18.832,23.54l4.708-4.708H18.832ZM21.186,4.664H7.062a2.345,2.345,0,0,0-2.354,2.31V21.1A2.375,2.375,0,0,0,7.062,23.54h10.2V18.832a1.574,1.574,0,0,1,1.569-1.569H23.54V7.018A2.383,2.383,0,0,0,21.186,4.664ZM0,17.655V5.885A5.892,5.892,0,0,1,5.885,0h11.77a1.177,1.177,0,1,1,0,2.354H5.885A3.535,3.535,0,0,0,2.354,5.885v11.77a1.177,1.177,0,1,1-2.354,0Z" transform="translate(368.823 569.443) rotate(-45)" fill="#b13d3d"/>
  <path id="list-check" d="M19.005,32.767A3,3,0,0,1,19.218,37L10.226,47a2.57,2.57,0,0,1-2.15.875A2.343,2.343,0,0,1,5.877,47l-5-5a2.869,2.869,0,0,1,0-4.132,3,3,0,0,1,4.241,0l2.763,2.758,6.887-7.642a3,3,0,0,1,4.236-.222Zm0,20A3,3,0,0,1,19.218,57L10.226,67a2.57,2.57,0,0,1-2.15.875A2.343,2.343,0,0,1,5.877,67l-5-5a2.873,2.873,0,0,1,0-4.136,3.015,3.015,0,0,1,4.241,0l2.763,2.761,6.887-7.647a3,3,0,0,1,4.236-.212Zm8.984-12.77a4,4,0,0,1,4-4H59.977a4,4,0,1,1,0,8H31.988a3.994,3.994,0,0,1-4-4Zm0,19.992a3.994,3.994,0,0,1,4-4H59.977a4,4,0,1,1,0,8H31.988A3.994,3.994,0,0,1,27.989,59.986Zm-8,19.992a3.994,3.994,0,0,1,4-4H59.977a4,4,0,1,1,0,8H23.991A3.994,3.994,0,0,1,19.992,79.979ZM0,79.979a6,6,0,1,1,6,6A6,6,0,0,1,0,79.979Z" transform="matrix(0.966, -0.259, 0.259, 0.966, 486.835, 62.304)" fill="#b13d3d"/>
  <path id="list-check-2" data-name="list-check" d="M10.542,32.424a1.665,1.665,0,0,1,.118,2.35L5.672,40.321a1.426,1.426,0,0,1-1.193.485,1.3,1.3,0,0,1-1.22-.485L.487,37.549a1.591,1.591,0,0,1,0-2.292,1.664,1.664,0,0,1,2.352,0l1.532,1.53,3.82-4.239a1.664,1.664,0,0,1,2.35-.123Zm0,11.093a1.664,1.664,0,0,1,.118,2.35L5.672,51.411A1.426,1.426,0,0,1,4.48,51.9a1.3,1.3,0,0,1-1.22-.485L.487,48.639a1.594,1.594,0,0,1,0-2.294,1.673,1.673,0,0,1,2.352,0l1.532,1.532,3.82-4.242a1.664,1.664,0,0,1,2.35-.118Zm4.983-7.084a2.217,2.217,0,0,1,2.218-2.218H33.269a2.218,2.218,0,0,1,0,4.436H17.744a2.216,2.216,0,0,1-2.218-2.218Zm0,11.09A2.216,2.216,0,0,1,17.744,45.3H33.269a2.218,2.218,0,0,1,0,4.436H17.744A2.216,2.216,0,0,1,15.526,47.523ZM11.09,58.612a2.216,2.216,0,0,1,2.218-2.218H33.269a2.218,2.218,0,1,1,0,4.436H13.308A2.216,2.216,0,0,1,11.09,58.612ZM0,58.612a3.327,3.327,0,1,1,3.327,3.327A3.327,3.327,0,0,1,0,58.612Z" transform="matrix(0.966, -0.259, 0.259, 0.966, 20.111, 685.594)" fill="#b13d3d"/>
  <path id="notebook" d="M86.542,0H46.6V106.514H86.542A13.313,13.313,0,0,0,99.856,93.2V13.314A13.32,13.32,0,0,0,86.542,0ZM13.314,13.314v8.321H4.993a4.993,4.993,0,1,0,0,9.986h8.321V48.264H4.993a4.993,4.993,0,1,0,0,9.986h8.321V74.892H4.993a4.993,4.993,0,1,0,0,9.986h8.321V93.2a13.313,13.313,0,0,0,13.314,13.314H39.943V0H26.628A13.313,13.313,0,0,0,13.314,13.314Z" transform="translate(549.192 622.074) rotate(45)" fill="#b13d3d"/>
  <path id="notebook-2" data-name="notebook" d="M57.933,0H31.195V71.3H57.933a8.912,8.912,0,0,0,8.913-8.913V8.913A8.917,8.917,0,0,0,57.933,0ZM8.913,8.913v5.57H3.342a3.342,3.342,0,0,0,0,6.685h5.57V32.309H3.342a3.342,3.342,0,1,0,0,6.685h5.57V50.134H3.342a3.342,3.342,0,1,0,0,6.685h5.57v5.57A8.912,8.912,0,0,0,17.825,71.3h8.913V0H17.825A8.912,8.912,0,0,0,8.913,8.913Z" transform="translate(1169.646 606.895) rotate(30)" fill="#b13d3d"/>
</svg>
